<svg xmlns="http://www.w3.org/2000/svg" xmlns:xlink="http://www.w3.org/1999/xlink" contentStyleType="text/css" data-diagram-type="CLASS" height="999px" preserveAspectRatio="none" style="width:3250px;height:999px;background:#FFFFFF;" version="1.1" viewBox="0 0 3250 999" width="3250px" zoomAndPan="magnify"><defs/><g><!--cluster Domain--><g class="cluster" data-entity="Domain" data-source-line="7" data-uid="ent0002" id="cluster_Domain"><rect fill="none" height="321" rx="2.5" ry="2.5" style="stroke:#181818;stroke-width:1;" width="1138" x="2106" y="672.5"/><text fill="#000000" font-family="sans-serif" font-size="14" font-weight="bold" lengthAdjust="spacing" textLength="60.04" x="2644.98" y="687.4951">Domain</text></g><!--cluster Entities--><g class="cluster" data-entity="Entities" data-source-line="8" data-uid="ent0003" id="cluster_Entities"><rect fill="none" height="238" rx="2.5" ry="2.5" style="stroke:#000000;stroke-width:1.5;" width="180" x="3032" y="723.5"/><text fill="#000000" font-family="sans-serif" font-size="14" font-weight="bold" lengthAdjust="spacing" textLength="60.3408" x="3091.8296" y="738.4951">Entities</text></g><!--cluster Interfaces--><g class="cluster" data-entity="Interfaces" data-source-line="22" data-uid="ent0005" id="cluster_Interfaces"><rect fill="none" height="107" rx="2.5" ry="2.5" style="stroke:#000000;stroke-width:1.5;" width="276" x="2732" y="789"/><text fill="#000000" font-family="sans-serif" font-size="14" font-weight="bold" lengthAdjust="spacing" textLength="79.9326" x="2830.0337" y="803.9951">Interfaces</text></g><!--cluster Repositories--><g class="cluster" data-entity="Repositories" data-source-line="28" data-uid="ent0007" id="cluster_Repositories"><rect fill="none" height="189" rx="2.5" ry="2.5" style="stroke:#000000;stroke-width:1.5;" width="562" x="2146" y="748"/><text fill="#000000" font-family="sans-serif" font-size="14" font-weight="bold" lengthAdjust="spacing" textLength="98.8887" x="2377.5557" y="762.9951">Repositories</text></g><!--cluster Application--><g class="cluster" data-entity="Application" data-source-line="40" data-uid="ent0009" id="cluster_Application"><rect fill="none" height="482" rx="2.5" ry="2.5" style="stroke:#181818;stroke-width:1;" width="1249" x="817" y="446"/><text fill="#000000" font-family="sans-serif" font-size="14" font-weight="bold" lengthAdjust="spacing" textLength="89.2979" x="1396.8511" y="460.9951">Application</text></g><!--cluster UseCases--><g class="cluster" data-entity="UseCases" data-source-line="41" data-uid="ent0010" id="cluster_UseCases"><rect fill="none" height="399" rx="2.5" ry="2.5" style="stroke:#000000;stroke-width:1.5;" width="806" x="1220" y="497"/><text fill="#000000" font-family="sans-serif" font-size="14" font-weight="bold" lengthAdjust="spacing" textLength="75.0791" x="1585.4604" y="511.9951">UseCases</text></g><!--cluster DTOs--><g class="cluster" data-entity="DTOs" data-source-line="64" data-uid="ent0017" id="cluster_DTOs"><rect fill="none" height="83" rx="2.5" ry="2.5" style="stroke:#000000;stroke-width:1.5;" width="347" x="849" y="517.5"/><text fill="#000000" font-family="sans-serif" font-size="14" font-weight="bold" lengthAdjust="spacing" textLength="41.4053" x="1001.7974" y="532.4951">DTOs</text></g><!--cluster Presentation--><g class="cluster" data-entity="Presentation" data-source-line="70" data-uid="ent0020" id="cluster_Presentation"><rect fill="none" height="233" rx="2.5" ry="2.5" style="stroke:#181818;stroke-width:1;" width="1279" x="1391" y="173"/><text fill="#000000" font-family="sans-serif" font-size="14" font-weight="bold" lengthAdjust="spacing" textLength="101.6709" x="1979.6646" y="187.9951">Presentation</text></g><!--cluster API--><g class="cluster" data-entity="API" data-source-line="72" data-uid="ent0021" id="cluster_API"><rect fill="none" height="83" rx="2.5" ry="2.5" style="stroke:#000000;stroke-width:1.5;" width="318" x="2320" y="267"/><text fill="#000000" font-family="sans-serif" font-size="14" font-weight="bold" lengthAdjust="spacing" textLength="26.3047" x="2465.8477" y="281.9951">API</text></g><!--cluster Middleware--><g class="cluster" data-entity="Middleware" data-source-line="77" data-uid="ent0024" id="cluster_Middleware"><rect fill="none" height="83" rx="2.5" ry="2.5" style="stroke:#000000;stroke-width:1.5;" width="107" x="2189" y="267"/><text fill="#000000" font-family="sans-serif" font-size="14" font-weight="bold" lengthAdjust="spacing" textLength="91.8477" x="2196.5762" y="281.9951">Middleware</text></g><!--cluster Utilities--><g class="cluster" data-entity="Utilities" data-source-line="81" data-uid="ent0026" id="cluster_Utilities"><rect fill="none" height="150" rx="2.5" ry="2.5" style="stroke:#000000;stroke-width:1.5;" width="734" x="1431" y="224"/><text fill="#000000" font-family="sans-serif" font-size="14" font-weight="bold" lengthAdjust="spacing" textLength="61.7764" x="1767.1118" y="238.9951">Utilities</text></g><!--cluster Error & Response--><g class="cluster" data-entity="Error &amp; Response" data-source-line="82" data-uid="ent0027" id="cluster_Error &amp; Response"><rect fill="none" height="83" rx="2.5" ry="2.5" style="stroke:#000000;stroke-width:1.5;" width="347" x="1794" y="267"/><text fill="#000000" font-family="sans-serif" font-size="14" font-weight="bold" lengthAdjust="spacing" textLength="137.8945" x="1898.5527" y="281.9951">Error &amp; Response</text></g><!--cluster Execution Utilities--><g class="cluster" data-entity="Execution Utilities" data-source-line="86" data-uid="ent0030" id="cluster_Execution Utilities"><rect fill="none" height="83" rx="2.5" ry="2.5" style="stroke:#000000;stroke-width:1.5;" width="315" x="1455" y="267"/><text fill="#000000" font-family="sans-serif" font-size="14" font-weight="bold" lengthAdjust="spacing" textLength="144.0811" x="1540.4595" y="281.9951">Execution Utilities</text></g><!--cluster Infrastracture--><g class="cluster" data-entity="Infrastracture" data-source-line="93" data-uid="ent0033" id="cluster_Infrastracture"><rect fill="none" height="625.5" rx="2.5" ry="2.5" style="stroke:#181818;stroke-width:1;" width="770" x="7" y="7"/><text fill="#000000" font-family="sans-serif" font-size="14" font-weight="bold" lengthAdjust="spacing" textLength="110.3525" x="336.8237" y="21.9951">Infrastracture</text></g><!--cluster Scrapers--><g class="cluster" data-entity="Scrapers" data-source-line="95" data-uid="ent0034" id="cluster_Scrapers"><rect fill="none" height="542.5" rx="2.5" ry="2.5" style="stroke:#000000;stroke-width:1.5;" width="341" x="396" y="58"/><text fill="#000000" font-family="sans-serif" font-size="14" font-weight="bold" lengthAdjust="spacing" textLength="69.4873" x="531.7563" y="72.9951">Scrapers</text></g><!--cluster Database--><g class="cluster" data-entity="Database" data-source-line="107" data-uid="ent0042" id="cluster_Database"><rect fill="none" height="83" rx="2.5" ry="2.5" style="stroke:#000000;stroke-width:1.5;" width="333" x="39" y="58"/><text fill="#000000" font-family="sans-serif" font-size="14" font-weight="bold" lengthAdjust="spacing" textLength="74.5049" x="168.2476" y="72.9951">Database</text></g><!--class Feed--><g class="entity" data-entity="Feed" data-source-line="9" data-uid="ent0004" id="entity_Feed"><rect fill="#F1F1F1" height="186.6719" rx="2.5" ry="2.5" style="stroke:#181818;stroke-width:0.5;" width="149.3408" x="3047.5" y="758.5"/><ellipse cx="3100.8374" cy="774.5" fill="#ADD1B2" rx="11" ry="11" style="stroke:#181818;stroke-width:1;"/><path d="M3103.8062,780.1406 Q3103.228,780.4375 3102.5874,780.5781 Q3101.9468,780.7344 3101.2437,780.7344 Q3098.7437,780.7344 3097.4155,779.0938 Q3096.103,777.4375 3096.103,774.3125 Q3096.103,771.1875 3097.4155,769.5313 Q3098.7437,767.875 3101.2437,767.875 Q3101.9468,767.875 3102.5874,768.0313 Q3103.2437,768.1875 3103.8062,768.4844 L3103.8062,771.2031 Q3103.1812,770.625 3102.5874,770.3594 Q3101.9937,770.0781 3101.3687,770.0781 Q3100.0249,770.0781 3099.3374,771.1563 Q3098.6499,772.2188 3098.6499,774.3125 Q3098.6499,776.4063 3099.3374,777.4844 Q3100.0249,778.5469 3101.3687,778.5469 Q3101.9937,778.5469 3102.5874,778.2813 Q3103.1812,778 3103.8062,777.4219 L3103.8062,780.1406 Z " fill="#000000"/><text fill="#000000" font-family="sans-serif" font-size="14" lengthAdjust="spacing" textLength="34.166" x="3121.3374" y="779.3467">Feed</text><line style="stroke:#181818;stroke-width:0.5;" x1="3048.5" x2="3195.8408" y1="790.5" y2="790.5"/><ellipse cx="3058.5" cy="804.1484" fill="none" rx="3" ry="3" style="stroke:#038048;stroke-width:1;"/><text fill="#000000" font-family="sans-serif" font-size="14" lengthAdjust="spacing" textLength="62.1318" x="3067.5" y="807.4951">id: string</text><ellipse cx="3058.5" cy="820.4453" fill="none" rx="3" ry="3" style="stroke:#038048;stroke-width:1;"/><text fill="#000000" font-family="sans-serif" font-size="14" lengthAdjust="spacing" textLength="118.7607" x="3067.5" y="823.792">createdAt: Date?</text><ellipse cx="3058.5" cy="836.7422" fill="none" rx="3" ry="3" style="stroke:#038048;stroke-width:1;"/><text fill="#000000" font-family="sans-serif" font-size="14" lengthAdjust="spacing" textLength="123.3408" x="3067.5" y="840.0889">updatedAt: Date?</text><ellipse cx="3058.5" cy="853.0391" fill="none" rx="3" ry="3" style="stroke:#038048;stroke-width:1;"/><text fill="#000000" font-family="sans-serif" font-size="14" lengthAdjust="spacing" textLength="96.1543" x="3067.5" y="856.3857">source: string</text><ellipse cx="3058.5" cy="869.3359" fill="none" rx="3" ry="3" style="stroke:#038048;stroke-width:1;"/><text fill="#000000" font-family="sans-serif" font-size="14" lengthAdjust="spacing" textLength="67.874" x="3067.5" y="872.6826">url: string</text><ellipse cx="3058.5" cy="885.6328" fill="none" rx="3" ry="3" style="stroke:#038048;stroke-width:1;"/><text fill="#000000" font-family="sans-serif" font-size="14" lengthAdjust="spacing" textLength="76.7266" x="3067.5" y="888.9795">title: string</text><ellipse cx="3058.5" cy="901.9297" fill="none" rx="3" ry="3" style="stroke:#038048;stroke-width:1;"/><text fill="#000000" font-family="sans-serif" font-size="14" lengthAdjust="spacing" textLength="102.9561" x="3067.5" y="905.2764">content: string</text><ellipse cx="3058.5" cy="918.2266" fill="none" rx="3" ry="3" style="stroke:#038048;stroke-width:1;"/><text fill="#000000" font-family="sans-serif" font-size="14" lengthAdjust="spacing" textLength="95.4912" x="3067.5" y="921.5732">author: string</text><ellipse cx="3058.5" cy="934.5234" fill="none" rx="3" ry="3" style="stroke:#038048;stroke-width:1;"/><text fill="#000000" font-family="sans-serif" font-size="14" lengthAdjust="spacing" textLength="111.0088" x="3067.5" y="937.8701">weight: number</text></g><!--class IFeedScraper--><g class="entity" data-entity="IFeedScraper" data-source-line="23" data-uid="ent0006" id="entity_IFeedScraper"><rect fill="#F1F1F1" height="56.2969" rx="2.5" ry="2.5" style="stroke:#181818;stroke-width:0.5;" width="242.6104" x="2748.5" y="824"/><ellipse cx="2819.3203" cy="840" fill="#B4A7E5" rx="11" ry="11" style="stroke:#181818;stroke-width:1;"/><path d="M2815.2422,835.7656 L2815.2422,833.6094 L2822.6328,833.6094 L2822.6328,835.7656 L2820.1641,835.7656 L2820.1641,843.8438 L2822.6328,843.8438 L2822.6328,846 L2815.2422,846 L2815.2422,843.8438 L2817.7109,843.8438 L2817.7109,835.7656 L2815.2422,835.7656 Z " fill="#000000"/><text fill="#000000" font-family="sans-serif" font-size="14" font-style="italic" lengthAdjust="spacing" textLength="92.4697" x="2839.8203" y="844.8467">IFeedScraper</text><line style="stroke:#181818;stroke-width:0.5;" x1="2749.5" x2="2990.1104" y1="856" y2="856"/><text fill="#000000" font-family="sans-serif" font-size="14" lengthAdjust="spacing" textLength="230.6104" x="2754.5" y="872.9951">scrape(): Promise&lt;FeedProps[]&gt;</text></g><!--class IFeedRepository--><g class="entity" data-entity="IFeedRepository" data-source-line="29" data-uid="ent0008" id="entity_IFeedRepository"><rect fill="#F1F1F1" height="137.7813" rx="2.5" ry="2.5" style="stroke:#181818;stroke-width:0.5;" width="530.4854" x="2162" y="783"/><ellipse cx="2366.3091" cy="799" fill="#B4A7E5" rx="11" ry="11" style="stroke:#181818;stroke-width:1;"/><path d="M2362.231,794.7656 L2362.231,792.6094 L2369.6216,792.6094 L2369.6216,794.7656 L2367.1528,794.7656 L2367.1528,802.8438 L2369.6216,802.8438 L2369.6216,805 L2362.231,805 L2362.231,802.8438 L2364.6997,802.8438 L2364.6997,794.7656 L2362.231,794.7656 Z " fill="#000000"/><text fill="#000000" font-family="sans-serif" font-size="14" font-style="italic" lengthAdjust="spacing" textLength="113.3672" x="2386.8091" y="803.8467">IFeedRepository</text><line style="stroke:#181818;stroke-width:0.5;" x1="2163" x2="2691.4854" y1="815" y2="815"/><text fill="#000000" font-family="sans-serif" font-size="14" lengthAdjust="spacing" textLength="336.335" x="2168" y="831.9951">findById(id: string): Promise&lt;FeedProps | null&gt;;</text><text fill="#000000" font-family="sans-serif" font-size="14" lengthAdjust="spacing" textLength="393.6816" x="2168" y="848.292">findAll(params: FindAllParams): Promise&lt;FeedProps[]&gt;;</text><text fill="#000000" font-family="sans-serif" font-size="14" lengthAdjust="spacing" textLength="335.6445" x="2168" y="864.5889">create(feed: FeedProps): Promise&lt;FeedProps&gt;;</text><text fill="#000000" font-family="sans-serif" font-size="14" lengthAdjust="spacing" textLength="402.6025" x="2168" y="880.8857">createMany(feeds: FeedProps[]): Promise&lt;FeedProps[]&gt;;</text><text fill="#000000" font-family="sans-serif" font-size="14" lengthAdjust="spacing" textLength="518.4854" x="2168" y="897.1826">update(id: string, feed: Partial&lt;FeedProps&gt;): Promise&lt;FeedProps | null&gt;;</text><text fill="#000000" font-family="sans-serif" font-size="14" lengthAdjust="spacing" textLength="240.3311" x="2168" y="913.4795">delete(id: string): Promise&lt;void&gt;;</text></g><!--class CreateFeed--><g class="entity" data-entity="CreateFeed" data-source-line="42" data-uid="ent0011" id="entity_CreateFeed"><rect fill="#F1F1F1" height="72.5938" rx="2.5" ry="2.5" style="stroke:#181818;stroke-width:0.5;" width="274.377" x="1236" y="532"/><ellipse cx="1328.4424" cy="548" fill="#ADD1B2" rx="11" ry="11" style="stroke:#181818;stroke-width:1;"/><path d="M1331.4111,553.6406 Q1330.833,553.9375 1330.1924,554.0781 Q1329.5518,554.2344 1328.8486,554.2344 Q1326.3486,554.2344 1325.0205,552.5938 Q1323.708,550.9375 1323.708,547.8125 Q1323.708,544.6875 1325.0205,543.0313 Q1326.3486,541.375 1328.8486,541.375 Q1329.5518,541.375 1330.1924,541.5313 Q1330.8486,541.6875 1331.4111,541.9844 L1331.4111,544.7031 Q1330.7861,544.125 1330.1924,543.8594 Q1329.5986,543.5781 1328.9736,543.5781 Q1327.6299,543.5781 1326.9424,544.6563 Q1326.2549,545.7188 1326.2549,547.8125 Q1326.2549,549.9063 1326.9424,550.9844 Q1327.6299,552.0469 1328.9736,552.0469 Q1329.5986,552.0469 1330.1924,551.7813 Q1330.7861,551.5 1331.4111,550.9219 L1331.4111,553.6406 Z " fill="#000000"/><text fill="#000000" font-family="sans-serif" font-size="14" lengthAdjust="spacing" textLength="80.9922" x="1348.9424" y="552.8467">CreateFeed</text><line style="stroke:#181818;stroke-width:0.5;" x1="1237" x2="1509.377" y1="564" y2="564"/><ellipse cx="1247" cy="577.6484" fill="#84BE84" rx="3" ry="3" style="stroke:#038048;stroke-width:1;"/><text fill="#000000" font-family="sans-serif" font-size="14" lengthAdjust="spacing" textLength="248.377" x="1256" y="580.9951">execute(dto: CreateFeedDto): Feed</text><rect fill="#F24D5C" height="6" style="stroke:#C82930;stroke-width:1;" width="6" x="1244" y="590.9453"/><text fill="#000000" font-family="sans-serif" font-size="14" lengthAdjust="spacing" textLength="239.2373" x="1256" y="597.292">validateFeed(dto: CreateFeedDto)</text></g><!--class UpdateFeed--><g class="entity" data-entity="UpdateFeed" data-source-line="46" data-uid="ent0012" id="entity_UpdateFeed"><rect fill="#F1F1F1" height="72.5938" rx="2.5" ry="2.5" style="stroke:#181818;stroke-width:0.5;" width="274.377" x="1545" y="532"/><ellipse cx="1635.5044" cy="548" fill="#ADD1B2" rx="11" ry="11" style="stroke:#181818;stroke-width:1;"/><path d="M1638.4731,553.6406 Q1637.895,553.9375 1637.2544,554.0781 Q1636.6138,554.2344 1635.9106,554.2344 Q1633.4106,554.2344 1632.0825,552.5938 Q1630.77,550.9375 1630.77,547.8125 Q1630.77,544.6875 1632.0825,543.0313 Q1633.4106,541.375 1635.9106,541.375 Q1636.6138,541.375 1637.2544,541.5313 Q1637.9106,541.6875 1638.4731,541.9844 L1638.4731,544.7031 Q1637.8481,544.125 1637.2544,543.8594 Q1636.6606,543.5781 1636.0356,543.5781 Q1634.6919,543.5781 1634.0044,544.6563 Q1633.3169,545.7188 1633.3169,547.8125 Q1633.3169,549.9063 1634.0044,550.9844 Q1634.6919,552.0469 1636.0356,552.0469 Q1636.6606,552.0469 1637.2544,551.7813 Q1637.8481,551.5 1638.4731,550.9219 L1638.4731,553.6406 Z " fill="#000000"/><text fill="#000000" font-family="sans-serif" font-size="14" lengthAdjust="spacing" textLength="84.8682" x="1656.0044" y="552.8467">UpdateFeed</text><line style="stroke:#181818;stroke-width:0.5;" x1="1546" x2="1818.377" y1="564" y2="564"/><ellipse cx="1556" cy="577.6484" fill="#84BE84" rx="3" ry="3" style="stroke:#038048;stroke-width:1;"/><text fill="#000000" font-family="sans-serif" font-size="14" lengthAdjust="spacing" textLength="248.377" x="1565" y="580.9951">execute(dto: CreateFeedDto): Feed</text><rect fill="#F24D5C" height="6" style="stroke:#C82930;stroke-width:1;" width="6" x="1553" y="590.9453"/><text fill="#000000" font-family="sans-serif" font-size="14" lengthAdjust="spacing" textLength="239.2373" x="1565" y="597.292">validateFeed(dto: CreateFeedDto)</text></g><!--class DeleteFeed--><g class="entity" data-entity="DeleteFeed" data-source-line="50" data-uid="ent0013" id="entity_DeleteFeed"><rect fill="#F1F1F1" height="56.2969" rx="2.5" ry="2.5" style="stroke:#181818;stroke-width:0.5;" width="155.2402" x="1854.5" y="540.5"/><ellipse cx="1888.8838" cy="556.5" fill="#ADD1B2" rx="11" ry="11" style="stroke:#181818;stroke-width:1;"/><path d="M1891.8526,562.1406 Q1891.2745,562.4375 1890.6338,562.5781 Q1889.9932,562.7344 1889.2901,562.7344 Q1886.7901,562.7344 1885.462,561.0938 Q1884.1495,559.4375 1884.1495,556.3125 Q1884.1495,553.1875 1885.462,551.5313 Q1886.7901,549.875 1889.2901,549.875 Q1889.9932,549.875 1890.6338,550.0313 Q1891.2901,550.1875 1891.8526,550.4844 L1891.8526,553.2031 Q1891.2276,552.625 1890.6338,552.3594 Q1890.0401,552.0781 1889.4151,552.0781 Q1888.0713,552.0781 1887.3838,553.1563 Q1886.6963,554.2188 1886.6963,556.3125 Q1886.6963,558.4063 1887.3838,559.4844 Q1888.0713,560.5469 1889.4151,560.5469 Q1890.0401,560.5469 1890.6338,560.2813 Q1891.2276,560 1891.8526,559.4219 L1891.8526,562.1406 Z " fill="#000000"/><text fill="#000000" font-family="sans-serif" font-size="14" lengthAdjust="spacing" textLength="80.165" x="1907.1914" y="561.3467">DeleteFeed</text><line style="stroke:#181818;stroke-width:0.5;" x1="1855.5" x2="2008.7402" y1="572.5" y2="572.5"/><ellipse cx="1865.5" cy="586.1484" fill="#84BE84" rx="3" ry="3" style="stroke:#038048;stroke-width:1;"/><text fill="#000000" font-family="sans-serif" font-size="14" lengthAdjust="spacing" textLength="129.2402" x="1874.5" y="589.4951">execute(id: string)</text></g><!--class ListFeeds--><g class="entity" data-entity="ListFeeds" data-source-line="53" data-uid="ent0014" id="entity_ListFeeds"><rect fill="#F1F1F1" height="56.2969" rx="2.5" ry="2.5" style="stroke:#181818;stroke-width:0.5;" width="97.9326" x="1324" y="824"/><ellipse cx="1339" cy="840" fill="#ADD1B2" rx="11" ry="11" style="stroke:#181818;stroke-width:1;"/><path d="M1341.9688,845.6406 Q1341.3906,845.9375 1340.75,846.0781 Q1340.1094,846.2344 1339.4063,846.2344 Q1336.9063,846.2344 1335.5781,844.5938 Q1334.2656,842.9375 1334.2656,839.8125 Q1334.2656,836.6875 1335.5781,835.0313 Q1336.9063,833.375 1339.4063,833.375 Q1340.1094,833.375 1340.75,833.5313 Q1341.4063,833.6875 1341.9688,833.9844 L1341.9688,836.7031 Q1341.3438,836.125 1340.75,835.8594 Q1340.1563,835.5781 1339.5313,835.5781 Q1338.1875,835.5781 1337.5,836.6563 Q1336.8125,837.7188 1336.8125,839.8125 Q1336.8125,841.9063 1337.5,842.9844 Q1338.1875,844.0469 1339.5313,844.0469 Q1340.1563,844.0469 1340.75,843.7813 Q1341.3438,843.5 1341.9688,842.9219 L1341.9688,845.6406 Z " fill="#000000"/><text fill="#000000" font-family="sans-serif" font-size="14" lengthAdjust="spacing" textLength="65.9326" x="1353" y="844.8467">ListFeeds</text><line style="stroke:#181818;stroke-width:0.5;" x1="1325" x2="1420.9326" y1="856" y2="856"/><ellipse cx="1335" cy="869.6484" fill="#84BE84" rx="3" ry="3" style="stroke:#038048;stroke-width:1;"/><text fill="#000000" font-family="sans-serif" font-size="14" lengthAdjust="spacing" textLength="67.1084" x="1344" y="872.9951">execute()</text></g><!--class GetFeedById--><g class="entity" data-entity="GetFeedById" data-source-line="56" data-uid="ent0015" id="entity_GetFeedById"><rect fill="#F1F1F1" height="56.2969" rx="2.5" ry="2.5" style="stroke:#181818;stroke-width:0.5;" width="155.2402" x="1457.5" y="824"/><ellipse cx="1487.448" cy="840" fill="#ADD1B2" rx="11" ry="11" style="stroke:#181818;stroke-width:1;"/><path d="M1490.4167,845.6406 Q1489.8386,845.9375 1489.198,846.0781 Q1488.5574,846.2344 1487.8542,846.2344 Q1485.3542,846.2344 1484.0261,844.5938 Q1482.7136,842.9375 1482.7136,839.8125 Q1482.7136,836.6875 1484.0261,835.0313 Q1485.3542,833.375 1487.8542,833.375 Q1488.5574,833.375 1489.198,833.5313 Q1489.8542,833.6875 1490.4167,833.9844 L1490.4167,836.7031 Q1489.7917,836.125 1489.198,835.8594 Q1488.6042,835.5781 1487.9792,835.5781 Q1486.6355,835.5781 1485.948,836.6563 Q1485.2605,837.7188 1485.2605,839.8125 Q1485.2605,841.9063 1485.948,842.9844 Q1486.6355,844.0469 1487.9792,844.0469 Q1488.6042,844.0469 1489.198,843.7813 Q1489.7917,843.5 1490.4167,842.9219 L1490.4167,845.6406 Z " fill="#000000"/><text fill="#000000" font-family="sans-serif" font-size="14" lengthAdjust="spacing" textLength="90.0225" x="1504.7698" y="844.8467">GetFeedById</text><line style="stroke:#181818;stroke-width:0.5;" x1="1458.5" x2="1611.7402" y1="856" y2="856"/><ellipse cx="1468.5" cy="869.6484" fill="#84BE84" rx="3" ry="3" style="stroke:#038048;stroke-width:1;"/><text fill="#000000" font-family="sans-serif" font-size="14" lengthAdjust="spacing" textLength="129.2402" x="1477.5" y="872.9951">execute(id: string)</text></g><!--class ImportFeeds--><g class="entity" data-entity="ImportFeeds" data-source-line="59" data-uid="ent0016" id="entity_ImportFeeds"><rect fill="#F1F1F1" height="56.2969" rx="2.5" ry="2.5" style="stroke:#181818;stroke-width:0.5;" width="119.9238" x="1648" y="824"/><ellipse cx="1663" cy="840" fill="#ADD1B2" rx="11" ry="11" style="stroke:#181818;stroke-width:1;"/><path d="M1665.9688,845.6406 Q1665.3906,845.9375 1664.75,846.0781 Q1664.1094,846.2344 1663.4063,846.2344 Q1660.9063,846.2344 1659.5781,844.5938 Q1658.2656,842.9375 1658.2656,839.8125 Q1658.2656,836.6875 1659.5781,835.0313 Q1660.9063,833.375 1663.4063,833.375 Q1664.1094,833.375 1664.75,833.5313 Q1665.4063,833.6875 1665.9688,833.9844 L1665.9688,836.7031 Q1665.3438,836.125 1664.75,835.8594 Q1664.1563,835.5781 1663.5313,835.5781 Q1662.1875,835.5781 1661.5,836.6563 Q1660.8125,837.7188 1660.8125,839.8125 Q1660.8125,841.9063 1661.5,842.9844 Q1662.1875,844.0469 1663.5313,844.0469 Q1664.1563,844.0469 1664.75,843.7813 Q1665.3438,843.5 1665.9688,842.9219 L1665.9688,845.6406 Z " fill="#000000"/><text fill="#000000" font-family="sans-serif" font-size="14" lengthAdjust="spacing" textLength="87.9238" x="1677" y="844.8467">ImportFeeds</text><line style="stroke:#181818;stroke-width:0.5;" x1="1649" x2="1766.9238" y1="856" y2="856"/><ellipse cx="1659" cy="869.6484" fill="#84BE84" rx="3" ry="3" style="stroke:#038048;stroke-width:1;"/><text fill="#000000" font-family="sans-serif" font-size="14" lengthAdjust="spacing" textLength="67.1084" x="1668" y="872.9951">execute()</text></g><!--class CreateFeedDto--><g class="entity" data-entity="CreateFeedDto" data-source-line="65" data-uid="ent0018" id="entity_CreateFeedDto"><rect fill="#F1F1F1" height="32" rx="2.5" ry="2.5" style="stroke:#181818;stroke-width:0.5;" width="137.8271" x="1042" y="552.5"/><ellipse cx="1057" cy="568.5" fill="#ADD1B2" rx="11" ry="11" style="stroke:#181818;stroke-width:1;"/><path d="M1059.9688,574.1406 Q1059.3906,574.4375 1058.75,574.5781 Q1058.1094,574.7344 1057.4063,574.7344 Q1054.9063,574.7344 1053.5781,573.0938 Q1052.2656,571.4375 1052.2656,568.3125 Q1052.2656,565.1875 1053.5781,563.5313 Q1054.9063,561.875 1057.4063,561.875 Q1058.1094,561.875 1058.75,562.0313 Q1059.4063,562.1875 1059.9688,562.4844 L1059.9688,565.2031 Q1059.3438,564.625 1058.75,564.3594 Q1058.1563,564.0781 1057.5313,564.0781 Q1056.1875,564.0781 1055.5,565.1563 Q1054.8125,566.2188 1054.8125,568.3125 Q1054.8125,570.4063 1055.5,571.4844 Q1056.1875,572.5469 1057.5313,572.5469 Q1058.1563,572.5469 1058.75,572.2813 Q1059.3438,572 1059.9688,571.4219 L1059.9688,574.1406 Z " fill="#000000"/><text fill="#000000" font-family="sans-serif" font-size="14" lengthAdjust="spacing" textLength="105.8271" x="1071" y="573.3467">CreateFeedDto</text></g><!--class UpdateFeedDto--><g class="entity" data-entity="UpdateFeedDto" data-source-line="66" data-uid="ent0019" id="entity_UpdateFeedDto"><rect fill="#F1F1F1" height="32" rx="2.5" ry="2.5" style="stroke:#181818;stroke-width:0.5;" width="141.7031" x="865" y="552.5"/><ellipse cx="880" cy="568.5" fill="#ADD1B2" rx="11" ry="11" style="stroke:#181818;stroke-width:1;"/><path d="M882.9688,574.1406 Q882.3906,574.4375 881.75,574.5781 Q881.1094,574.7344 880.4063,574.7344 Q877.9063,574.7344 876.5781,573.0938 Q875.2656,571.4375 875.2656,568.3125 Q875.2656,565.1875 876.5781,563.5313 Q877.9063,561.875 880.4063,561.875 Q881.1094,561.875 881.75,562.0313 Q882.4063,562.1875 882.9688,562.4844 L882.9688,565.2031 Q882.3438,564.625 881.75,564.3594 Q881.1563,564.0781 880.5313,564.0781 Q879.1875,564.0781 878.5,565.1563 Q877.8125,566.2188 877.8125,568.3125 Q877.8125,570.4063 878.5,571.4844 Q879.1875,572.5469 880.5313,572.5469 Q881.1563,572.5469 881.75,572.2813 Q882.3438,572 882.9688,571.4219 L882.9688,574.1406 Z " fill="#000000"/><text fill="#000000" font-family="sans-serif" font-size="14" lengthAdjust="spacing" textLength="109.7031" x="894" y="573.3467">UpdateFeedDto</text></g><!--class FeedController--><g class="entity" data-entity="FeedController" data-source-line="73" data-uid="ent0022" id="entity_FeedController"><rect fill="#F1F1F1" height="32" rx="2.5" ry="2.5" style="stroke:#181818;stroke-width:0.5;" width="135.3389" x="2486.5" y="302"/><ellipse cx="2501.5" cy="318" fill="#ADD1B2" rx="11" ry="11" style="stroke:#181818;stroke-width:1;"/><path d="M2504.4688,323.6406 Q2503.8906,323.9375 2503.25,324.0781 Q2502.6094,324.2344 2501.9063,324.2344 Q2499.4063,324.2344 2498.0781,322.5938 Q2496.7656,320.9375 2496.7656,317.8125 Q2496.7656,314.6875 2498.0781,313.0313 Q2499.4063,311.375 2501.9063,311.375 Q2502.6094,311.375 2503.25,311.5313 Q2503.9063,311.6875 2504.4688,311.9844 L2504.4688,314.7031 Q2503.8438,314.125 2503.25,313.8594 Q2502.6563,313.5781 2502.0313,313.5781 Q2500.6875,313.5781 2500,314.6563 Q2499.3125,315.7188 2499.3125,317.8125 Q2499.3125,319.9063 2500,320.9844 Q2500.6875,322.0469 2502.0313,322.0469 Q2502.6563,322.0469 2503.25,321.7813 Q2503.8438,321.5 2504.4688,320.9219 L2504.4688,323.6406 Z " fill="#000000"/><text fill="#000000" font-family="sans-serif" font-size="14" lengthAdjust="spacing" textLength="103.3389" x="2515.5" y="322.8467">FeedController</text></g><!--class FeedRoutes--><g class="entity" data-entity="FeedRoutes" data-source-line="74" data-uid="ent0023" id="entity_FeedRoutes"><rect fill="#F1F1F1" height="32" rx="2.5" ry="2.5" style="stroke:#181818;stroke-width:0.5;" width="114.7285" x="2336.5" y="302"/><ellipse cx="2351.5" cy="318" fill="#ADD1B2" rx="11" ry="11" style="stroke:#181818;stroke-width:1;"/><path d="M2354.4688,323.6406 Q2353.8906,323.9375 2353.25,324.0781 Q2352.6094,324.2344 2351.9063,324.2344 Q2349.4063,324.2344 2348.0781,322.5938 Q2346.7656,320.9375 2346.7656,317.8125 Q2346.7656,314.6875 2348.0781,313.0313 Q2349.4063,311.375 2351.9063,311.375 Q2352.6094,311.375 2353.25,311.5313 Q2353.9063,311.6875 2354.4688,311.9844 L2354.4688,314.7031 Q2353.8438,314.125 2353.25,313.8594 Q2352.6563,313.5781 2352.0313,313.5781 Q2350.6875,313.5781 2350,314.6563 Q2349.3125,315.7188 2349.3125,317.8125 Q2349.3125,319.9063 2350,320.9844 Q2350.6875,322.0469 2352.0313,322.0469 Q2352.6563,322.0469 2353.25,321.7813 Q2353.8438,321.5 2354.4688,320.9219 L2354.4688,323.6406 Z " fill="#000000"/><text fill="#000000" font-family="sans-serif" font-size="14" lengthAdjust="spacing" textLength="82.7285" x="2365.5" y="322.8467">FeedRoutes</text></g><!--class Errors--><g class="entity" data-entity="Errors" data-source-line="78" data-uid="ent0025" id="entity_Errors"><rect fill="#F1F1F1" height="32" rx="2.5" ry="2.5" style="stroke:#181818;stroke-width:0.5;" width="73.9727" x="2205" y="302"/><ellipse cx="2220" cy="318" fill="#ADD1B2" rx="11" ry="11" style="stroke:#181818;stroke-width:1;"/><path d="M2222.9688,323.6406 Q2222.3906,323.9375 2221.75,324.0781 Q2221.1094,324.2344 2220.4063,324.2344 Q2217.9063,324.2344 2216.5781,322.5938 Q2215.2656,320.9375 2215.2656,317.8125 Q2215.2656,314.6875 2216.5781,313.0313 Q2217.9063,311.375 2220.4063,311.375 Q2221.1094,311.375 2221.75,311.5313 Q2222.4063,311.6875 2222.9688,311.9844 L2222.9688,314.7031 Q2222.3438,314.125 2221.75,313.8594 Q2221.1563,313.5781 2220.5313,313.5781 Q2219.1875,313.5781 2218.5,314.6563 Q2217.8125,315.7188 2217.8125,317.8125 Q2217.8125,319.9063 2218.5,320.9844 Q2219.1875,322.0469 2220.5313,322.0469 Q2221.1563,322.0469 2221.75,321.7813 Q2222.3438,321.5 2222.9688,320.9219 L2222.9688,323.6406 Z " fill="#000000"/><text fill="#000000" font-family="sans-serif" font-size="14" lengthAdjust="spacing" textLength="41.9727" x="2234" y="322.8467">Errors</text></g><!--class ResponseService--><g class="entity" data-entity="ResponseService" data-source-line="83" data-uid="ent0028" id="entity_ResponseService"><rect fill="#F1F1F1" height="32" rx="2.5" ry="2.5" style="stroke:#181818;stroke-width:0.5;" width="151.6084" x="1973" y="302"/><ellipse cx="1988" cy="318" fill="#ADD1B2" rx="11" ry="11" style="stroke:#181818;stroke-width:1;"/><path d="M1990.9688,323.6406 Q1990.3906,323.9375 1989.75,324.0781 Q1989.1094,324.2344 1988.4063,324.2344 Q1985.9063,324.2344 1984.5781,322.5938 Q1983.2656,320.9375 1983.2656,317.8125 Q1983.2656,314.6875 1984.5781,313.0313 Q1985.9063,311.375 1988.4063,311.375 Q1989.1094,311.375 1989.75,311.5313 Q1990.4063,311.6875 1990.9688,311.9844 L1990.9688,314.7031 Q1990.3438,314.125 1989.75,313.8594 Q1989.1563,313.5781 1988.5313,313.5781 Q1987.1875,313.5781 1986.5,314.6563 Q1985.8125,315.7188 1985.8125,317.8125 Q1985.8125,319.9063 1986.5,320.9844 Q1987.1875,322.0469 1988.5313,322.0469 Q1989.1563,322.0469 1989.75,321.7813 Q1990.3438,321.5 1990.9688,320.9219 L1990.9688,323.6406 Z " fill="#000000"/><text fill="#000000" font-family="sans-serif" font-size="14" lengthAdjust="spacing" textLength="119.6084" x="2002" y="322.8467">ResponseService</text></g><!--class CustomErrors--><g class="entity" data-entity="CustomErrors" data-source-line="84" data-uid="ent0029" id="entity_CustomErrors"><rect fill="#F1F1F1" height="32" rx="2.5" ry="2.5" style="stroke:#181818;stroke-width:0.5;" width="127.6074" x="1810" y="302"/><ellipse cx="1825" cy="318" fill="#ADD1B2" rx="11" ry="11" style="stroke:#181818;stroke-width:1;"/><path d="M1827.9688,323.6406 Q1827.3906,323.9375 1826.75,324.0781 Q1826.1094,324.2344 1825.4063,324.2344 Q1822.9063,324.2344 1821.5781,322.5938 Q1820.2656,320.9375 1820.2656,317.8125 Q1820.2656,314.6875 1821.5781,313.0313 Q1822.9063,311.375 1825.4063,311.375 Q1826.1094,311.375 1826.75,311.5313 Q1827.4063,311.6875 1827.9688,311.9844 L1827.9688,314.7031 Q1827.3438,314.125 1826.75,313.8594 Q1826.1563,313.5781 1825.5313,313.5781 Q1824.1875,313.5781 1823.5,314.6563 Q1822.8125,315.7188 1822.8125,317.8125 Q1822.8125,319.9063 1823.5,320.9844 Q1824.1875,322.0469 1825.5313,322.0469 Q1826.1563,322.0469 1826.75,321.7813 Q1827.3438,321.5 1827.9688,320.9219 L1827.9688,323.6406 Z " fill="#000000"/><text fill="#000000" font-family="sans-serif" font-size="14" lengthAdjust="spacing" textLength="95.6074" x="1839" y="322.8467">CustomErrors</text></g><!--class AsyncWrapper--><g class="entity" data-entity="AsyncWrapper" data-source-line="87" data-uid="ent0031" id="entity_AsyncWrapper"><rect fill="#F1F1F1" height="32" rx="2.5" ry="2.5" style="stroke:#181818;stroke-width:0.5;" width="134.0469" x="1620" y="302"/><ellipse cx="1635" cy="318" fill="#ADD1B2" rx="11" ry="11" style="stroke:#181818;stroke-width:1;"/><path d="M1637.9688,323.6406 Q1637.3906,323.9375 1636.75,324.0781 Q1636.1094,324.2344 1635.4063,324.2344 Q1632.9063,324.2344 1631.5781,322.5938 Q1630.2656,320.9375 1630.2656,317.8125 Q1630.2656,314.6875 1631.5781,313.0313 Q1632.9063,311.375 1635.4063,311.375 Q1636.1094,311.375 1636.75,311.5313 Q1637.4063,311.6875 1637.9688,311.9844 L1637.9688,314.7031 Q1637.3438,314.125 1636.75,313.8594 Q1636.1563,313.5781 1635.5313,313.5781 Q1634.1875,313.5781 1633.5,314.6563 Q1632.8125,315.7188 1632.8125,317.8125 Q1632.8125,319.9063 1633.5,320.9844 Q1634.1875,322.0469 1635.5313,322.0469 Q1636.1563,322.0469 1636.75,321.7813 Q1637.3438,321.5 1637.9688,320.9219 L1637.9688,323.6406 Z " fill="#000000"/><text fill="#000000" font-family="sans-serif" font-size="14" lengthAdjust="spacing" textLength="102.0469" x="1649" y="322.8467">AsyncWrapper</text></g><!--class ValidateDto--><g class="entity" data-entity="ValidateDto" data-source-line="88" data-uid="ent0032" id="entity_ValidateDto"><rect fill="#F1F1F1" height="32" rx="2.5" ry="2.5" style="stroke:#181818;stroke-width:0.5;" width="114.3389" x="1471" y="302"/><ellipse cx="1486" cy="318" fill="#ADD1B2" rx="11" ry="11" style="stroke:#181818;stroke-width:1;"/><path d="M1488.9688,323.6406 Q1488.3906,323.9375 1487.75,324.0781 Q1487.1094,324.2344 1486.4063,324.2344 Q1483.9063,324.2344 1482.5781,322.5938 Q1481.2656,320.9375 1481.2656,317.8125 Q1481.2656,314.6875 1482.5781,313.0313 Q1483.9063,311.375 1486.4063,311.375 Q1487.1094,311.375 1487.75,311.5313 Q1488.4063,311.6875 1488.9688,311.9844 L1488.9688,314.7031 Q1488.3438,314.125 1487.75,313.8594 Q1487.1563,313.5781 1486.5313,313.5781 Q1485.1875,313.5781 1484.5,314.6563 Q1483.8125,315.7188 1483.8125,317.8125 Q1483.8125,319.9063 1484.5,320.9844 Q1485.1875,322.0469 1486.5313,322.0469 Q1487.1563,322.0469 1487.75,321.7813 Q1488.3438,321.5 1488.9688,320.9219 L1488.9688,323.6406 Z " fill="#000000"/><text fill="#000000" font-family="sans-serif" font-size="14" lengthAdjust="spacing" textLength="82.3389" x="1500" y="322.8467">ValidateDto</text></g><!--class BaseScraper--><g class="entity" data-entity="BaseScraper" data-source-line="96" data-uid="ent0035" id="entity_BaseScraper"><rect fill="#F1F1F1" height="32" rx="2.5" ry="2.5" style="stroke:#181818;stroke-width:0.5;" width="120.2656" x="505" y="302"/><ellipse cx="520" cy="318" fill="#ADD1B2" rx="11" ry="11" style="stroke:#181818;stroke-width:1;"/><path d="M522.9688,323.6406 Q522.3906,323.9375 521.75,324.0781 Q521.1094,324.2344 520.4063,324.2344 Q517.9063,324.2344 516.5781,322.5938 Q515.2656,320.9375 515.2656,317.8125 Q515.2656,314.6875 516.5781,313.0313 Q517.9063,311.375 520.4063,311.375 Q521.1094,311.375 521.75,311.5313 Q522.4063,311.6875 522.9688,311.9844 L522.9688,314.7031 Q522.3438,314.125 521.75,313.8594 Q521.1563,313.5781 520.5313,313.5781 Q519.1875,313.5781 518.5,314.6563 Q517.8125,315.7188 517.8125,317.8125 Q517.8125,319.9063 518.5,320.9844 Q519.1875,322.0469 520.5313,322.0469 Q521.1563,322.0469 521.75,321.7813 Q522.3438,321.5 522.9688,320.9219 L522.9688,323.6406 Z " fill="#000000"/><text fill="#000000" font-family="sans-serif" font-size="14" lengthAdjust="spacing" textLength="88.2656" x="534" y="322.8467">BaseScraper</text></g><!--class ElPaisScraper--><g class="entity" data-entity="ElPaisScraper" data-source-line="97" data-uid="ent0036" id="entity_ElPaisScraper"><rect fill="#F1F1F1" height="32" rx="2.5" ry="2.5" style="stroke:#181818;stroke-width:0.5;" width="127.1152" x="412.5" y="552.5"/><ellipse cx="427.5" cy="568.5" fill="#ADD1B2" rx="11" ry="11" style="stroke:#181818;stroke-width:1;"/><path d="M430.4688,574.1406 Q429.8906,574.4375 429.25,574.5781 Q428.6094,574.7344 427.9063,574.7344 Q425.4063,574.7344 424.0781,573.0938 Q422.7656,571.4375 422.7656,568.3125 Q422.7656,565.1875 424.0781,563.5313 Q425.4063,561.875 427.9063,561.875 Q428.6094,561.875 429.25,562.0313 Q429.9063,562.1875 430.4688,562.4844 L430.4688,565.2031 Q429.8438,564.625 429.25,564.3594 Q428.6563,564.0781 428.0313,564.0781 Q426.6875,564.0781 426,565.1563 Q425.3125,566.2188 425.3125,568.3125 Q425.3125,570.4063 426,571.4844 Q426.6875,572.5469 428.0313,572.5469 Q428.6563,572.5469 429.25,572.2813 Q429.8438,572 430.4688,571.4219 L430.4688,574.1406 Z " fill="#000000"/><text fill="#000000" font-family="sans-serif" font-size="14" lengthAdjust="spacing" textLength="95.1152" x="441.5" y="573.3467">ElPaisScraper</text></g><!--class ElMundoScraper--><g class="entity" data-entity="ElMundoScraper" data-source-line="98" data-uid="ent0037" id="entity_ElMundoScraper"><rect fill="#F1F1F1" height="32" rx="2.5" ry="2.5" style="stroke:#181818;stroke-width:0.5;" width="146.1875" x="575" y="552.5"/><ellipse cx="590" cy="568.5" fill="#ADD1B2" rx="11" ry="11" style="stroke:#181818;stroke-width:1;"/><path d="M592.9688,574.1406 Q592.3906,574.4375 591.75,574.5781 Q591.1094,574.7344 590.4063,574.7344 Q587.9063,574.7344 586.5781,573.0938 Q585.2656,571.4375 585.2656,568.3125 Q585.2656,565.1875 586.5781,563.5313 Q587.9063,561.875 590.4063,561.875 Q591.1094,561.875 591.75,562.0313 Q592.4063,562.1875 592.9688,562.4844 L592.9688,565.2031 Q592.3438,564.625 591.75,564.3594 Q591.1563,564.0781 590.5313,564.0781 Q589.1875,564.0781 588.5,565.1563 Q587.8125,566.2188 587.8125,568.3125 Q587.8125,570.4063 588.5,571.4844 Q589.1875,572.5469 590.5313,572.5469 Q591.1563,572.5469 591.75,572.2813 Q592.3438,572 592.9688,571.4219 L592.9688,574.1406 Z " fill="#000000"/><text fill="#000000" font-family="sans-serif" font-size="14" lengthAdjust="spacing" textLength="114.1875" x="604" y="573.3467">ElMundoScraper</text></g><!--class ScraperFactory--><g class="entity" data-entity="ScraperFactory" data-source-line="99" data-uid="ent0038" id="entity_ScraperFactory"><rect fill="#F1F1F1" height="32" rx="2.5" ry="2.5" style="stroke:#181818;stroke-width:0.5;" width="138.5996" x="495.5" y="93"/><ellipse cx="510.5" cy="109" fill="#ADD1B2" rx="11" ry="11" style="stroke:#181818;stroke-width:1;"/><path d="M513.4688,114.6406 Q512.8906,114.9375 512.25,115.0781 Q511.6094,115.2344 510.9063,115.2344 Q508.4063,115.2344 507.0781,113.5938 Q505.7656,111.9375 505.7656,108.8125 Q505.7656,105.6875 507.0781,104.0313 Q508.4063,102.375 510.9063,102.375 Q511.6094,102.375 512.25,102.5313 Q512.9063,102.6875 513.4688,102.9844 L513.4688,105.7031 Q512.8438,105.125 512.25,104.8594 Q511.6563,104.5781 511.0313,104.5781 Q509.6875,104.5781 509,105.6563 Q508.3125,106.7188 508.3125,108.8125 Q508.3125,110.9063 509,111.9844 Q509.6875,113.0469 511.0313,113.0469 Q511.6563,113.0469 512.25,112.7813 Q512.8438,112.5 513.4688,111.9219 L513.4688,114.6406 Z " fill="#000000"/><text fill="#000000" font-family="sans-serif" font-size="14" lengthAdjust="spacing" textLength="106.5996" x="524.5" y="113.8467">ScraperFactory</text></g><!--class MongoConnection--><g class="entity" data-entity="MongoConnection" data-source-line="108" data-uid="ent0043" id="entity_MongoConnection"><rect fill="#F1F1F1" height="32" rx="2.5" ry="2.5" style="stroke:#181818;stroke-width:0.5;" width="158.1846" x="198" y="93"/><ellipse cx="213" cy="109" fill="#ADD1B2" rx="11" ry="11" style="stroke:#181818;stroke-width:1;"/><path d="M215.9688,114.6406 Q215.3906,114.9375 214.75,115.0781 Q214.1094,115.2344 213.4063,115.2344 Q210.9063,115.2344 209.5781,113.5938 Q208.2656,111.9375 208.2656,108.8125 Q208.2656,105.6875 209.5781,104.0313 Q210.9063,102.375 213.4063,102.375 Q214.1094,102.375 214.75,102.5313 Q215.4063,102.6875 215.9688,102.9844 L215.9688,105.7031 Q215.3438,105.125 214.75,104.8594 Q214.1563,104.5781 213.5313,104.5781 Q212.1875,104.5781 211.5,105.6563 Q210.8125,106.7188 210.8125,108.8125 Q210.8125,110.9063 211.5,111.9844 Q212.1875,113.0469 213.5313,113.0469 Q214.1563,113.0469 214.75,112.7813 Q215.3438,112.5 215.9688,111.9219 L215.9688,114.6406 Z " fill="#000000"/><text fill="#000000" font-family="sans-serif" font-size="14" lengthAdjust="spacing" textLength="126.1846" x="227" y="113.8467">MongoConnection</text></g><!--class FeedModel--><g class="entity" data-entity="FeedModel" data-source-line="109" data-uid="ent0044" id="entity_FeedModel"><rect fill="#F1F1F1" height="32" rx="2.5" ry="2.5" style="stroke:#181818;stroke-width:0.5;" width="108.2002" x="55" y="93"/><ellipse cx="70" cy="109" fill="#ADD1B2" rx="11" ry="11" style="stroke:#181818;stroke-width:1;"/><path d="M72.9688,114.6406 Q72.3906,114.9375 71.75,115.0781 Q71.1094,115.2344 70.4063,115.2344 Q67.9063,115.2344 66.5781,113.5938 Q65.2656,111.9375 65.2656,108.8125 Q65.2656,105.6875 66.5781,104.0313 Q67.9063,102.375 70.4063,102.375 Q71.1094,102.375 71.75,102.5313 Q72.4063,102.6875 72.9688,102.9844 L72.9688,105.7031 Q72.3438,105.125 71.75,104.8594 Q71.1563,104.5781 70.5313,104.5781 Q69.1875,104.5781 68.5,105.6563 Q67.8125,106.7188 67.8125,108.8125 Q67.8125,110.9063 68.5,111.9844 Q69.1875,113.0469 70.5313,113.0469 Q71.1563,113.0469 71.75,112.7813 Q72.3438,112.5 72.9688,111.9219 L72.9688,114.6406 Z " fill="#000000"/><text fill="#000000" font-family="sans-serif" font-size="14" lengthAdjust="spacing" textLength="76.2002" x="84" y="113.8467">FeedModel</text></g><!--reverse link BaseScraper to ElPaisScraper--><g class="link" data-entity-1="BaseScraper" data-entity-2="ElPaisScraper" data-source-line="101" data-uid="lnk39" id="link_BaseScraper_ElPaisScraper"><path codeLine="101" d="M553.5,351.1156 C537.61,395.4756 497.42,507.7 481.48,552.21" fill="none" id="BaseScraper-backto-ElPaisScraper" style="stroke:#181818;stroke-width:1;"/><polygon fill="none" points="559.57,334.17,547.8514,349.0923,559.1485,353.139,559.57,334.17" style="stroke:#181818;stroke-width:1;"/></g><!--reverse link BaseScraper to ElMundoScraper--><g class="link" data-entity-1="BaseScraper" data-entity-2="ElMundoScraper" data-source-line="102" data-uid="lnk40" id="link_BaseScraper_ElMundoScraper"><path codeLine="102" d="M575.7702,351.2436 C590.5802,395.6036 628.03,507.7 642.89,552.21" fill="none" id="BaseScraper-backto-ElMundoScraper" style="stroke:#181818;stroke-width:1;"/><polygon fill="none" points="570.07,334.17,570.079,353.1437,581.4614,349.3435,570.07,334.17" style="stroke:#181818;stroke-width:1;"/></g><!--link ScraperFactory to BaseScraper--><g class="link" data-entity-1="ScraperFactory" data-entity-2="BaseScraper" data-source-line="104" data-uid="lnk41" id="link_ScraperFactory_BaseScraper"><path codeLine="104" d="M565,125.22 C565,163.5 565,257.45 565,295.76" fill="none" id="ScraperFactory-to-BaseScraper" style="stroke:#181818;stroke-width:1;"/><polygon fill="#181818" points="565,301.76,569,292.76,565,296.76,561,292.76,565,301.76" style="stroke:#181818;stroke-width:1;"/></g><!--link Infrastracture to Presentation--><g class="link" data-entity-1="Infrastracture" data-entity-2="Presentation" data-source-line="114" data-uid="lnk45" id="link_Infrastracture_Presentation"><path codeLine="114" d="M777.6632,112.8502 C782.6663,114.494 789.7236,116.8127 798.5416,119.71 C816.1775,125.5045 840.8563,133.613 870.23,143.2642 C928.9775,162.5666 1006.505,188.0394 1084.03,213.5113 C1161.555,238.9831 1239.0775,264.4541 1297.815,283.7527 C1327.1838,293.402 1351.8563,301.5082 1369.4847,307.2999 C1378.2989,310.1957 1385.3521,312.5129 1390.3508,314.1551 C1390.507,314.2064 1384.9609,312.3844 1385.1131,312.4344" fill="none" id="Infrastracture-to-Presentation" style="stroke:#181818;stroke-width:1;"/><polygon fill="#181818" points="1390.8134,314.3071,1383.5114,307.6979,1386.0632,312.7465,1381.0146,315.2983,1390.8134,314.3071" style="stroke:#181818;stroke-width:1;"/></g><!--link Presentation to Application--><g class="link" data-entity-1="Presentation" data-entity-2="Application" data-source-line="115" data-uid="lnk46" id="link_Presentation_Application"><path codeLine="115" d="M1436.2968,406.0857 C1436.4301,406.2369 1436.5639,406.3877 1436.6981,406.538 C1437.7718,407.7405 1438.8737,408.9147 1440.0044,410.057 C1444.5275,414.6263 1449.5125,418.685 1455,422 C1482.16,438.4 2001.29,410.1 2026,430 C2029.0063,432.4213 2031.7637,435.065 2034.2916,437.8948 C2035.5556,439.3097 2036.7621,440.7711 2037.9137,442.2744 C2038.4895,443.0261 2039.0515,443.7882 2039.6001,444.5603 C2039.8744,444.9463 2036.756,440.3838 2037.0236,440.7747" fill="none" id="Presentation-to-Application" style="stroke:#181818;stroke-width:1;"/><polygon fill="#181818" points="2040.413,445.7257,2038.6296,436.0397,2037.5885,441.5999,2032.0283,440.5588,2040.413,445.7257" style="stroke:#181818;stroke-width:1;"/></g><!--link Application to Domain--><g class="link" data-entity-1="Application" data-entity-2="Domain" data-source-line="116" data-uid="lnk47" id="link_Application_Domain"><path codeLine="116" d="M2066.0369,609.9123 C2066.3498,611.4853 2066.6696,613.0931 2066.9959,614.7338 C2072.2175,640.9838 2079.1088,675.625 2086,710.265 C2092.8912,744.905 2099.7825,779.5438 2105.0041,805.7888 C2105.3304,807.4291 2104.4794,803.1519 2104.7923,804.7246" fill="none" id="Application-to-Domain" style="stroke:#181818;stroke-width:1;"/><polygon fill="#181818" points="2105.9631,810.6093,2108.1301,801.0018,2104.9875,805.7054,2100.2838,802.5628,2105.9631,810.6093" style="stroke:#181818;stroke-width:1;"/></g><!--SRC=[nLRRJXin47tdAqOyL45jVY15L261AbAZHbpQ1yI3Oq-2XTTUsLuWAlnxPpTxiRDEG7rf5EKoSsREU6vURtBm1fR6UvE1a1QvbqOV0RX7gNDcMGOvuuziZTT-en1A0DDhXH64comt6hK_11AuOeNoD_ZYnqgkTKPuuFI1bd0FKY1WbliDP9WjqJeIqhlr1STJap6fZ-4FYQ492uulj9TUeciKzEAAEGUNYAAJmMUGOWJEMwdNWP1RP1x5s8zWIZ- -1QeY5_jKpXIMOy9TOLL2IX6g59eREhxs2Gqh_8En2SKpolK3MUYYp5AjU3jgFkFSpChihXWFioCR6SpA35rpotAqGQ9S9HcSZ61XJIOTdfOu-fsxk_kpTnYlC3TEUcFb0SuMj0beLrAByyrC3BeofKA0LpgwKcTV8yEnKeEgpTm8BhV_5zNVFQVehBVr7wn8EO8MaZBh6SsPtbI6Bh2ykt-NSjjNmJc_m9QUGlQIgO3oOnaGg31o69Wz6IbQQ5UrjzvuZVDSISxA-U_DsAt32NDXHRSZDgdoq1iqV45UK432cr60cNfpiirKYnt24rDIr82KGHHvmtkRY__2EwqIlPStA43I_8TqlZHsIUkqpNUiJCh9-2VE6Qrc-s7M_a1FRtuUA3jbQazX6aswsHOM7Is-eDjYrl5YjajQEftGlhH6gNRnTQehGwTnUmunbq8eV6OMTxrUM6liFhDRBzNEtT9TEwKXV88hT7JtkS1nuxhHNADzaXntj9F2qPqRq7U5wpYg6b6A8159usZiDfh_ffMTjrbfLB_g7k-gT6W1pFJACcebndtH9IhEI7rRz3hYdBP3hOlJIsjOkhHcNcXXKgfQTac1q1NHHG4X3Po-3eT9_mdG3bKDZ7bWE3phdICn3yop9NEzHfeRlJRKdxfzX8hxSsveIuS-wwzUsiimulaeKV70L9XmOPUGQ85NYFg9wIy0]--></g></svg>